<mxfile host="app.diagrams.net" modified="2023-11-30T19:11:23.031Z" agent="Mozilla/5.0 (Windows NT 10.0; Win64; x64) AppleWebKit/537.36 (KHTML, like Gecko) Chrome/119.0.0.0 Safari/537.36" etag="YTycxAIxyqyqkCTB8g2L" version="22.1.5" type="github">
  <diagram name="Page-1" id="lunTjhBo2XNUW96AfH5e">
    <mxGraphModel dx="794" dy="1554" grid="1" gridSize="10" guides="1" tooltips="1" connect="1" arrows="1" fold="1" page="1" pageScale="1" pageWidth="850" pageHeight="1100" math="0" shadow="0">
      <root>
        <mxCell id="0" />
        <mxCell id="1" parent="0" />
        <mxCell id="pUjE_sgsByX1yygRpAxe-14" style="edgeStyle=orthogonalEdgeStyle;rounded=0;orthogonalLoop=1;jettySize=auto;html=1;entryX=0.822;entryY=1.067;entryDx=0;entryDy=0;entryPerimeter=0;" edge="1" parent="1" source="tinJQ0OD1YB2o_1JhMgv-1" target="pUjE_sgsByX1yygRpAxe-5">
          <mxGeometry relative="1" as="geometry">
            <mxPoint x="760" y="220" as="targetPoint" />
            <Array as="points">
              <mxPoint x="709" y="210" />
            </Array>
          </mxGeometry>
        </mxCell>
        <mxCell id="tinJQ0OD1YB2o_1JhMgv-1" value="user" style="rounded=0;whiteSpace=wrap;html=1;fillColor=#fad7ac;strokeColor=#b46504;labelBackgroundColor=none;" parent="1" vertex="1">
          <mxGeometry x="190" y="160" width="120" height="60" as="geometry" />
        </mxCell>
        <mxCell id="tinJQ0OD1YB2o_1JhMgv-2" value="userId" style="ellipse;whiteSpace=wrap;html=1;labelBackgroundColor=none;fillColor=#f8cecc;strokeColor=#b85450;gradientColor=#ea6b66;" parent="1" vertex="1">
          <mxGeometry x="90" y="40" width="80" height="80" as="geometry" />
        </mxCell>
        <mxCell id="tinJQ0OD1YB2o_1JhMgv-3" value="Name" style="ellipse;whiteSpace=wrap;html=1;labelBackgroundColor=none;fillColor=#f8cecc;strokeColor=#b85450;gradientColor=#ea6b66;" parent="1" vertex="1">
          <mxGeometry x="300" y="40" width="80" height="80" as="geometry" />
        </mxCell>
        <mxCell id="tinJQ0OD1YB2o_1JhMgv-4" value="userPassword" style="ellipse;whiteSpace=wrap;html=1;labelBackgroundColor=none;fillColor=#f8cecc;strokeColor=#b85450;gradientColor=#ea6b66;" parent="1" vertex="1">
          <mxGeometry x="20" y="110" width="90" height="80" as="geometry" />
        </mxCell>
        <mxCell id="tinJQ0OD1YB2o_1JhMgv-7" value="about" style="ellipse;whiteSpace=wrap;html=1;labelBackgroundColor=none;fillColor=#f8cecc;strokeColor=#b85450;gradientColor=#ea6b66;" parent="1" vertex="1">
          <mxGeometry x="190" width="80" height="80" as="geometry" />
        </mxCell>
        <mxCell id="tinJQ0OD1YB2o_1JhMgv-8" value="userEmail&lt;br&gt;(userName for login)" style="ellipse;whiteSpace=wrap;html=1;labelBackgroundColor=none;fillColor=#f8cecc;strokeColor=#b85450;gradientColor=#ea6b66;" parent="1" vertex="1">
          <mxGeometry x="380" y="110" width="80" height="80" as="geometry" />
        </mxCell>
        <mxCell id="tinJQ0OD1YB2o_1JhMgv-10" value="" style="endArrow=classic;html=1;rounded=0;labelBackgroundColor=none;strokeColor=#23445D;fontColor=default;" parent="1" edge="1">
          <mxGeometry width="50" height="50" relative="1" as="geometry">
            <mxPoint x="260" y="160" as="sourcePoint" />
            <mxPoint x="310" y="110" as="targetPoint" />
          </mxGeometry>
        </mxCell>
        <mxCell id="tinJQ0OD1YB2o_1JhMgv-11" value="" style="endArrow=classic;html=1;rounded=0;exitX=1.044;exitY=0.389;exitDx=0;exitDy=0;exitPerimeter=0;labelBackgroundColor=none;strokeColor=#23445D;fontColor=default;" parent="1" source="tinJQ0OD1YB2o_1JhMgv-1" target="tinJQ0OD1YB2o_1JhMgv-8" edge="1">
          <mxGeometry width="50" height="50" relative="1" as="geometry">
            <mxPoint x="310" y="210" as="sourcePoint" />
            <mxPoint x="360" y="160" as="targetPoint" />
          </mxGeometry>
        </mxCell>
        <mxCell id="tinJQ0OD1YB2o_1JhMgv-12" value="" style="endArrow=classic;html=1;rounded=0;labelBackgroundColor=none;strokeColor=#23445D;fontColor=default;" parent="1" target="tinJQ0OD1YB2o_1JhMgv-4" edge="1">
          <mxGeometry width="50" height="50" relative="1" as="geometry">
            <mxPoint x="200" y="160" as="sourcePoint" />
            <mxPoint x="250" y="110" as="targetPoint" />
          </mxGeometry>
        </mxCell>
        <mxCell id="tinJQ0OD1YB2o_1JhMgv-13" value="" style="endArrow=classic;html=1;rounded=0;labelBackgroundColor=none;strokeColor=#23445D;fontColor=default;" parent="1" source="tinJQ0OD1YB2o_1JhMgv-1" target="tinJQ0OD1YB2o_1JhMgv-7" edge="1">
          <mxGeometry width="50" height="50" relative="1" as="geometry">
            <mxPoint x="250" y="270" as="sourcePoint" />
            <mxPoint x="250" y="290.71067811865476" as="targetPoint" />
          </mxGeometry>
        </mxCell>
        <mxCell id="tinJQ0OD1YB2o_1JhMgv-15" value="" style="endArrow=classic;html=1;rounded=0;entryX=0.75;entryY=0.942;entryDx=0;entryDy=0;entryPerimeter=0;labelBackgroundColor=none;strokeColor=#23445D;fontColor=default;" parent="1" target="tinJQ0OD1YB2o_1JhMgv-2" edge="1">
          <mxGeometry width="50" height="50" relative="1" as="geometry">
            <mxPoint x="190" y="160" as="sourcePoint" />
            <mxPoint x="170" y="90" as="targetPoint" />
            <Array as="points">
              <mxPoint x="160" y="120" />
            </Array>
          </mxGeometry>
        </mxCell>
        <mxCell id="tinJQ0OD1YB2o_1JhMgv-16" value="post" style="rounded=0;whiteSpace=wrap;html=1;fillColor=#fad7ac;strokeColor=#b46504;labelBackgroundColor=none;" parent="1" vertex="1">
          <mxGeometry x="560" y="540" width="120" height="60" as="geometry" />
        </mxCell>
        <mxCell id="tinJQ0OD1YB2o_1JhMgv-17" value="postId" style="ellipse;whiteSpace=wrap;html=1;labelBackgroundColor=none;fillColor=#f8cecc;strokeColor=#b85450;gradientColor=#ea6b66;" parent="1" vertex="1">
          <mxGeometry x="530" y="240" width="70" height="80" as="geometry" />
        </mxCell>
        <mxCell id="tinJQ0OD1YB2o_1JhMgv-18" value="postImage" style="ellipse;whiteSpace=wrap;html=1;labelBackgroundColor=none;fillColor=#f8cecc;strokeColor=#b85450;gradientColor=#ea6b66;" parent="1" vertex="1">
          <mxGeometry x="450" y="310" width="70" height="80" as="geometry" />
        </mxCell>
        <mxCell id="tinJQ0OD1YB2o_1JhMgv-20" value="userId" style="ellipse;whiteSpace=wrap;html=1;labelBackgroundColor=none;fillColor=#008a00;strokeColor=#005700;fontColor=#ffffff;" parent="1" vertex="1">
          <mxGeometry x="560" y="360" width="60" height="80" as="geometry" />
        </mxCell>
        <mxCell id="tinJQ0OD1YB2o_1JhMgv-21" value="postTitle" style="ellipse;whiteSpace=wrap;html=1;labelBackgroundColor=none;fillColor=#f8cecc;strokeColor=#b85450;gradientColor=#ea6b66;" parent="1" vertex="1">
          <mxGeometry x="620" y="280" width="60" height="80" as="geometry" />
        </mxCell>
        <mxCell id="tinJQ0OD1YB2o_1JhMgv-22" value="postContent" style="ellipse;whiteSpace=wrap;html=1;labelBackgroundColor=none;fillColor=#f8cecc;strokeColor=#b85450;gradientColor=#ea6b66;" parent="1" vertex="1">
          <mxGeometry x="660" y="380" width="70" height="80" as="geometry" />
        </mxCell>
        <mxCell id="tinJQ0OD1YB2o_1JhMgv-24" value="" style="endArrow=classic;html=1;rounded=0;exitX=0.106;exitY=-0.022;exitDx=0;exitDy=0;exitPerimeter=0;entryX=0.343;entryY=1;entryDx=0;entryDy=0;entryPerimeter=0;labelBackgroundColor=none;strokeColor=#23445D;fontColor=default;" parent="1" source="tinJQ0OD1YB2o_1JhMgv-16" target="tinJQ0OD1YB2o_1JhMgv-17" edge="1">
          <mxGeometry width="50" height="50" relative="1" as="geometry">
            <mxPoint x="380" y="480" as="sourcePoint" />
            <mxPoint x="430" y="430" as="targetPoint" />
          </mxGeometry>
        </mxCell>
        <mxCell id="tinJQ0OD1YB2o_1JhMgv-25" value="" style="endArrow=classic;html=1;rounded=0;entryX=0.344;entryY=1.025;entryDx=0;entryDy=0;entryPerimeter=0;exitX=0.622;exitY=-0.067;exitDx=0;exitDy=0;exitPerimeter=0;labelBackgroundColor=none;strokeColor=#23445D;fontColor=default;" parent="1" source="tinJQ0OD1YB2o_1JhMgv-16" target="tinJQ0OD1YB2o_1JhMgv-20" edge="1">
          <mxGeometry width="50" height="50" relative="1" as="geometry">
            <mxPoint x="420" y="400" as="sourcePoint" />
            <mxPoint x="470" y="350" as="targetPoint" />
          </mxGeometry>
        </mxCell>
        <mxCell id="tinJQ0OD1YB2o_1JhMgv-26" value="" style="endArrow=classic;html=1;rounded=0;exitX=0.839;exitY=-0.056;exitDx=0;exitDy=0;exitPerimeter=0;labelBackgroundColor=none;strokeColor=#23445D;fontColor=default;" parent="1" source="tinJQ0OD1YB2o_1JhMgv-16" target="tinJQ0OD1YB2o_1JhMgv-21" edge="1">
          <mxGeometry width="50" height="50" relative="1" as="geometry">
            <mxPoint x="480" y="410" as="sourcePoint" />
            <mxPoint x="530" y="360" as="targetPoint" />
          </mxGeometry>
        </mxCell>
        <mxCell id="tinJQ0OD1YB2o_1JhMgv-27" value="" style="endArrow=classic;html=1;rounded=0;entryX=0.743;entryY=1;entryDx=0;entryDy=0;entryPerimeter=0;exitX=0.5;exitY=0;exitDx=0;exitDy=0;labelBackgroundColor=none;strokeColor=#23445D;fontColor=default;" parent="1" source="tinJQ0OD1YB2o_1JhMgv-16" target="tinJQ0OD1YB2o_1JhMgv-18" edge="1">
          <mxGeometry width="50" height="50" relative="1" as="geometry">
            <mxPoint x="240" y="430" as="sourcePoint" />
            <mxPoint x="290" y="380" as="targetPoint" />
          </mxGeometry>
        </mxCell>
        <mxCell id="tinJQ0OD1YB2o_1JhMgv-28" value="" style="endArrow=classic;html=1;rounded=0;exitX=1;exitY=0.25;exitDx=0;exitDy=0;entryX=0.2;entryY=0.975;entryDx=0;entryDy=0;entryPerimeter=0;labelBackgroundColor=none;strokeColor=#23445D;fontColor=default;" parent="1" source="tinJQ0OD1YB2o_1JhMgv-16" target="tinJQ0OD1YB2o_1JhMgv-22" edge="1">
          <mxGeometry width="50" height="50" relative="1" as="geometry">
            <mxPoint x="590" y="420" as="sourcePoint" />
            <mxPoint x="640" y="370" as="targetPoint" />
          </mxGeometry>
        </mxCell>
        <mxCell id="tinJQ0OD1YB2o_1JhMgv-29" value="create&lt;br&gt;(1 user has many)" style="rhombus;whiteSpace=wrap;html=1;labelBackgroundColor=none;fillColor=#b1ddf0;strokeColor=#10739e;" parent="1" vertex="1">
          <mxGeometry x="310" y="340" width="80" height="80" as="geometry" />
        </mxCell>
        <mxCell id="tinJQ0OD1YB2o_1JhMgv-30" value="" style="endArrow=classic;html=1;rounded=0;entryX=0.417;entryY=-0.008;entryDx=0;entryDy=0;entryPerimeter=0;labelBackgroundColor=none;strokeColor=#23445D;fontColor=default;exitX=0.128;exitY=0.967;exitDx=0;exitDy=0;exitPerimeter=0;" parent="1" source="tinJQ0OD1YB2o_1JhMgv-1" target="tinJQ0OD1YB2o_1JhMgv-29" edge="1">
          <mxGeometry width="50" height="50" relative="1" as="geometry">
            <mxPoint x="250" y="260" as="sourcePoint" />
            <mxPoint x="180" y="290" as="targetPoint" />
            <Array as="points" />
          </mxGeometry>
        </mxCell>
        <mxCell id="tinJQ0OD1YB2o_1JhMgv-32" value="" style="endArrow=classic;html=1;rounded=0;exitX=1;exitY=1;exitDx=0;exitDy=0;entryX=0;entryY=0.5;entryDx=0;entryDy=0;labelBackgroundColor=none;strokeColor=#23445D;fontColor=default;" parent="1" source="tinJQ0OD1YB2o_1JhMgv-29" target="tinJQ0OD1YB2o_1JhMgv-16" edge="1">
          <mxGeometry width="50" height="50" relative="1" as="geometry">
            <mxPoint x="425" y="500" as="sourcePoint" />
            <mxPoint x="250" y="430" as="targetPoint" />
          </mxGeometry>
        </mxCell>
        <mxCell id="tinJQ0OD1YB2o_1JhMgv-41" value="comment" style="rounded=0;whiteSpace=wrap;html=1;strokeColor=#b46504;fillColor=#fad7ac;" parent="1" vertex="1">
          <mxGeometry x="240" y="830" width="120" height="60" as="geometry" />
        </mxCell>
        <mxCell id="tinJQ0OD1YB2o_1JhMgv-42" value="userId" style="ellipse;whiteSpace=wrap;html=1;strokeColor=#005700;fillColor=#008a00;fontColor=#ffffff;" parent="1" vertex="1">
          <mxGeometry x="170" y="960" width="80" height="80" as="geometry" />
        </mxCell>
        <mxCell id="tinJQ0OD1YB2o_1JhMgv-43" value="commentId" style="ellipse;whiteSpace=wrap;html=1;strokeColor=#b85450;fillColor=#f8cecc;gradientColor=#ea6b66;" parent="1" vertex="1">
          <mxGeometry x="300" y="970" width="80" height="80" as="geometry" />
        </mxCell>
        <mxCell id="tinJQ0OD1YB2o_1JhMgv-44" value="postid" style="ellipse;whiteSpace=wrap;html=1;strokeColor=#005700;fillColor=#008a00;fontColor=#ffffff;" parent="1" vertex="1">
          <mxGeometry x="40" y="970" width="80" height="80" as="geometry" />
        </mxCell>
        <mxCell id="tinJQ0OD1YB2o_1JhMgv-45" value="commentContent" style="ellipse;whiteSpace=wrap;html=1;strokeColor=#b85450;fillColor=#f8cecc;gradientColor=#ea6b66;" parent="1" vertex="1">
          <mxGeometry x="400" y="970" width="100" height="80" as="geometry" />
        </mxCell>
        <mxCell id="tinJQ0OD1YB2o_1JhMgv-46" value="" style="endArrow=classic;html=1;rounded=0;strokeColor=#23445D;entryX=0.267;entryY=0.05;entryDx=0;entryDy=0;entryPerimeter=0;exitX=0.75;exitY=1;exitDx=0;exitDy=0;" parent="1" source="tinJQ0OD1YB2o_1JhMgv-41" target="tinJQ0OD1YB2o_1JhMgv-43" edge="1">
          <mxGeometry width="50" height="50" relative="1" as="geometry">
            <mxPoint x="340" y="800" as="sourcePoint" />
            <mxPoint x="390" y="750" as="targetPoint" />
          </mxGeometry>
        </mxCell>
        <mxCell id="tinJQ0OD1YB2o_1JhMgv-48" value="" style="endArrow=classic;html=1;rounded=0;strokeColor=#23445D;exitX=0.5;exitY=1;exitDx=0;exitDy=0;entryX=0.692;entryY=-0.008;entryDx=0;entryDy=0;entryPerimeter=0;" parent="1" source="tinJQ0OD1YB2o_1JhMgv-41" target="tinJQ0OD1YB2o_1JhMgv-42" edge="1">
          <mxGeometry width="50" height="50" relative="1" as="geometry">
            <mxPoint x="340" y="800" as="sourcePoint" />
            <mxPoint x="390" y="750" as="targetPoint" />
          </mxGeometry>
        </mxCell>
        <mxCell id="tinJQ0OD1YB2o_1JhMgv-49" value="" style="endArrow=classic;html=1;rounded=0;strokeColor=#23445D;exitX=0.583;exitY=1.033;exitDx=0;exitDy=0;exitPerimeter=0;entryX=0.293;entryY=0;entryDx=0;entryDy=0;entryPerimeter=0;" parent="1" source="tinJQ0OD1YB2o_1JhMgv-41" target="tinJQ0OD1YB2o_1JhMgv-45" edge="1">
          <mxGeometry width="50" height="50" relative="1" as="geometry">
            <mxPoint x="340" y="800" as="sourcePoint" />
            <mxPoint x="390" y="750" as="targetPoint" />
          </mxGeometry>
        </mxCell>
        <mxCell id="tinJQ0OD1YB2o_1JhMgv-50" value="" style="endArrow=classic;html=1;rounded=0;strokeColor=#23445D;exitX=0.25;exitY=1;exitDx=0;exitDy=0;" parent="1" source="tinJQ0OD1YB2o_1JhMgv-41" target="tinJQ0OD1YB2o_1JhMgv-44" edge="1">
          <mxGeometry width="50" height="50" relative="1" as="geometry">
            <mxPoint x="340" y="800" as="sourcePoint" />
            <mxPoint x="390" y="750" as="targetPoint" />
          </mxGeometry>
        </mxCell>
        <mxCell id="tinJQ0OD1YB2o_1JhMgv-51" value="can do&lt;br&gt;(1 to many)&amp;nbsp;" style="rhombus;whiteSpace=wrap;html=1;strokeColor=#10739e;fillColor=#b1ddf0;" parent="1" vertex="1">
          <mxGeometry x="20" y="690" width="80" height="80" as="geometry" />
        </mxCell>
        <mxCell id="tinJQ0OD1YB2o_1JhMgv-52" value="can have&lt;br&gt;many" style="rhombus;whiteSpace=wrap;html=1;strokeColor=#10739e;fillColor=#b1ddf0;" parent="1" vertex="1">
          <mxGeometry x="670" y="740" width="80" height="80" as="geometry" />
        </mxCell>
        <mxCell id="tinJQ0OD1YB2o_1JhMgv-53" value="" style="endArrow=classic;html=1;rounded=0;strokeColor=#23445D;exitX=0.75;exitY=1;exitDx=0;exitDy=0;" parent="1" source="tinJQ0OD1YB2o_1JhMgv-16" target="tinJQ0OD1YB2o_1JhMgv-52" edge="1">
          <mxGeometry width="50" height="50" relative="1" as="geometry">
            <mxPoint x="550" y="620" as="sourcePoint" />
            <mxPoint x="600" y="570" as="targetPoint" />
          </mxGeometry>
        </mxCell>
        <mxCell id="tinJQ0OD1YB2o_1JhMgv-54" value="" style="endArrow=classic;html=1;rounded=0;strokeColor=#23445D;entryX=1.006;entryY=0.633;entryDx=0;entryDy=0;entryPerimeter=0;" parent="1" source="tinJQ0OD1YB2o_1JhMgv-52" target="tinJQ0OD1YB2o_1JhMgv-41" edge="1">
          <mxGeometry width="50" height="50" relative="1" as="geometry">
            <mxPoint x="340" y="700" as="sourcePoint" />
            <mxPoint x="390" y="650" as="targetPoint" />
          </mxGeometry>
        </mxCell>
        <mxCell id="tinJQ0OD1YB2o_1JhMgv-55" value="" style="endArrow=classic;html=1;rounded=0;strokeColor=#23445D;exitX=0.908;exitY=0.675;exitDx=0;exitDy=0;exitPerimeter=0;entryX=-0.044;entryY=0.133;entryDx=0;entryDy=0;entryPerimeter=0;" parent="1" source="tinJQ0OD1YB2o_1JhMgv-51" target="tinJQ0OD1YB2o_1JhMgv-41" edge="1">
          <mxGeometry width="50" height="50" relative="1" as="geometry">
            <mxPoint x="170" y="650" as="sourcePoint" />
            <mxPoint x="220" y="600" as="targetPoint" />
          </mxGeometry>
        </mxCell>
        <mxCell id="tinJQ0OD1YB2o_1JhMgv-56" value="" style="endArrow=classic;html=1;rounded=0;strokeColor=#23445D;exitX=0;exitY=0.5;exitDx=0;exitDy=0;" parent="1" source="tinJQ0OD1YB2o_1JhMgv-1" target="tinJQ0OD1YB2o_1JhMgv-51" edge="1">
          <mxGeometry width="50" height="50" relative="1" as="geometry">
            <mxPoint x="20" y="220" as="sourcePoint" />
            <mxPoint x="390" y="650" as="targetPoint" />
            <Array as="points">
              <mxPoint x="20" y="440" />
            </Array>
          </mxGeometry>
        </mxCell>
        <mxCell id="tinJQ0OD1YB2o_1JhMgv-62" value="category" style="rounded=0;whiteSpace=wrap;html=1;strokeColor=#b46504;fillColor=#fad7ac;" parent="1" vertex="1">
          <mxGeometry x="130" y="560" width="120" height="60" as="geometry" />
        </mxCell>
        <mxCell id="tinJQ0OD1YB2o_1JhMgv-63" value="categoryId" style="ellipse;whiteSpace=wrap;html=1;strokeColor=#b85450;fillColor=#f8cecc;gradientColor=#ea6b66;" parent="1" vertex="1">
          <mxGeometry x="80" y="450" width="80" height="50" as="geometry" />
        </mxCell>
        <mxCell id="tinJQ0OD1YB2o_1JhMgv-64" value="categorytitle" style="ellipse;whiteSpace=wrap;html=1;strokeColor=#b85450;fillColor=#f8cecc;gradientColor=#ea6b66;" parent="1" vertex="1">
          <mxGeometry x="205" y="670" width="90" height="60" as="geometry" />
        </mxCell>
        <mxCell id="tinJQ0OD1YB2o_1JhMgv-65" value="" style="endArrow=classic;html=1;rounded=0;strokeColor=#23445D;exitX=0.583;exitY=0;exitDx=0;exitDy=0;exitPerimeter=0;entryX=1;entryY=0.5;entryDx=0;entryDy=0;" parent="1" source="tinJQ0OD1YB2o_1JhMgv-62" target="tinJQ0OD1YB2o_1JhMgv-63" edge="1">
          <mxGeometry width="50" height="50" relative="1" as="geometry">
            <mxPoint x="180" y="550" as="sourcePoint" />
            <mxPoint x="170" y="480" as="targetPoint" />
          </mxGeometry>
        </mxCell>
        <mxCell id="tinJQ0OD1YB2o_1JhMgv-66" value="" style="endArrow=classic;html=1;rounded=0;strokeColor=#23445D;entryX=0.03;entryY=0.289;entryDx=0;entryDy=0;exitX=0.583;exitY=1;exitDx=0;exitDy=0;exitPerimeter=0;entryPerimeter=0;" parent="1" source="tinJQ0OD1YB2o_1JhMgv-62" target="tinJQ0OD1YB2o_1JhMgv-64" edge="1">
          <mxGeometry width="50" height="50" relative="1" as="geometry">
            <mxPoint x="280" y="660" as="sourcePoint" />
            <mxPoint x="330" y="610" as="targetPoint" />
          </mxGeometry>
        </mxCell>
        <mxCell id="tinJQ0OD1YB2o_1JhMgv-67" value="" style="endArrow=classic;html=1;rounded=0;strokeColor=#23445D;exitX=1;exitY=0.5;exitDx=0;exitDy=0;entryX=0;entryY=0.75;entryDx=0;entryDy=0;" parent="1" source="tinJQ0OD1YB2o_1JhMgv-62" target="tinJQ0OD1YB2o_1JhMgv-16" edge="1">
          <mxGeometry width="50" height="50" relative="1" as="geometry">
            <mxPoint x="340" y="540" as="sourcePoint" />
            <mxPoint x="390" y="490" as="targetPoint" />
          </mxGeometry>
        </mxCell>
        <mxCell id="tinJQ0OD1YB2o_1JhMgv-68" value="1 to many&lt;br&gt;(1 category has many)" style="rhombus;whiteSpace=wrap;html=1;strokeColor=#6c8ebf;fillColor=#dae8fc;" parent="1" vertex="1">
          <mxGeometry x="310" y="550" width="130" height="110" as="geometry" />
        </mxCell>
        <mxCell id="tinJQ0OD1YB2o_1JhMgv-69" value="1" style="text;html=1;align=center;verticalAlign=middle;resizable=0;points=[];autosize=1;strokeColor=none;fillColor=none;fontColor=#FFFFFF;" parent="1" vertex="1">
          <mxGeometry x="275" y="558" width="30" height="30" as="geometry" />
        </mxCell>
        <mxCell id="tinJQ0OD1YB2o_1JhMgv-70" value="man" style="text;html=1;align=center;verticalAlign=middle;resizable=0;points=[];autosize=1;strokeColor=none;fillColor=none;fontColor=#FFFFFF;" parent="1" vertex="1">
          <mxGeometry x="445" y="558" width="50" height="30" as="geometry" />
        </mxCell>
        <mxCell id="pUjE_sgsByX1yygRpAxe-3" value="commentId" style="ellipse;whiteSpace=wrap;html=1;strokeColor=#005700;fillColor=#008a00;fontColor=#ffffff;" vertex="1" parent="1">
          <mxGeometry x="750" y="360" width="80" height="70" as="geometry" />
        </mxCell>
        <mxCell id="pUjE_sgsByX1yygRpAxe-4" value="" style="endArrow=classic;html=1;rounded=0;exitX=1.022;exitY=0.622;exitDx=0;exitDy=0;exitPerimeter=0;entryX=0.683;entryY=0.981;entryDx=0;entryDy=0;entryPerimeter=0;" edge="1" parent="1" source="tinJQ0OD1YB2o_1JhMgv-16" target="pUjE_sgsByX1yygRpAxe-3">
          <mxGeometry width="50" height="50" relative="1" as="geometry">
            <mxPoint x="760" y="490" as="sourcePoint" />
            <mxPoint x="810" y="440" as="targetPoint" />
          </mxGeometry>
        </mxCell>
        <mxCell id="pUjE_sgsByX1yygRpAxe-7" value="" style="edgeStyle=orthogonalEdgeStyle;rounded=0;orthogonalLoop=1;jettySize=auto;html=1;" edge="1" parent="1" source="pUjE_sgsByX1yygRpAxe-5" target="pUjE_sgsByX1yygRpAxe-6">
          <mxGeometry relative="1" as="geometry" />
        </mxCell>
        <mxCell id="pUjE_sgsByX1yygRpAxe-9" value="" style="edgeStyle=orthogonalEdgeStyle;rounded=0;orthogonalLoop=1;jettySize=auto;html=1;" edge="1" parent="1" source="pUjE_sgsByX1yygRpAxe-5" target="pUjE_sgsByX1yygRpAxe-8">
          <mxGeometry relative="1" as="geometry" />
        </mxCell>
        <mxCell id="pUjE_sgsByX1yygRpAxe-11" value="" style="edgeStyle=orthogonalEdgeStyle;rounded=0;orthogonalLoop=1;jettySize=auto;html=1;" edge="1" parent="1" source="pUjE_sgsByX1yygRpAxe-5" target="pUjE_sgsByX1yygRpAxe-10">
          <mxGeometry relative="1" as="geometry" />
        </mxCell>
        <mxCell id="pUjE_sgsByX1yygRpAxe-5" value="role" style="whiteSpace=wrap;html=1;fillColor=#fad7ac;strokeColor=#b46504;" vertex="1" parent="1">
          <mxGeometry x="610" y="90" width="120" height="60" as="geometry" />
        </mxCell>
        <mxCell id="pUjE_sgsByX1yygRpAxe-6" value="roleId" style="ellipse;whiteSpace=wrap;html=1;fillColor=#f8cecc;strokeColor=#b85450;gradientColor=#ea6b66;" vertex="1" parent="1">
          <mxGeometry x="630" y="-60" width="80" height="80" as="geometry" />
        </mxCell>
        <mxCell id="pUjE_sgsByX1yygRpAxe-8" value="roleTitle" style="ellipse;whiteSpace=wrap;html=1;fillColor=#f8cecc;strokeColor=#b85450;gradientColor=#ea6b66;" vertex="1" parent="1">
          <mxGeometry x="800" y="-40" width="80" height="80" as="geometry" />
        </mxCell>
        <mxCell id="pUjE_sgsByX1yygRpAxe-10" value="userId" style="ellipse;whiteSpace=wrap;html=1;fillColor=#008a00;strokeColor=#005700;fontColor=#ffffff;" vertex="1" parent="1">
          <mxGeometry x="470" y="-50" width="80" height="80" as="geometry" />
        </mxCell>
        <mxCell id="pUjE_sgsByX1yygRpAxe-15" value="1 to 1&lt;br&gt;(1 user has one role)" style="rhombus;whiteSpace=wrap;html=1;fillColor=#b1ddf0;strokeColor=#10739e;" vertex="1" parent="1">
          <mxGeometry x="495" y="150" width="95" height="80" as="geometry" />
        </mxCell>
      </root>
    </mxGraphModel>
  </diagram>
</mxfile>
